FILE "Grille Logic (Japan).bin" BINARY
  TRACK 01 MODE2/2352
    INDEX 01 00:00:00
  TRACK 02 AUDIO
    INDEX 00 05:31:70
    INDEX 01 05:33:70
  TRACK 03 AUDIO
    INDEX 00 07:11:26
    INDEX 01 07:13:26
  TRACK 04 AUDIO
    INDEX 00 11:01:29
    INDEX 01 11:03:29
